# xmcd CD database file
#
# Track frame offsets:
#	150
#	22056
#	39461
#	71496
#	109129
#
# Disc length: 1810 seconds
#
# Revision: 0
# Processed by: cddbd v1.5PL3 Copyright (c) Steve Scherf et al.
# Submitted via: CDex 1.51
#
DISCID=3e071005
DTITLE=DOLLY PARTON - Two Doors Down
DYEAR=1900
DGENRE=Country
TTITLE0=Two Doors Down (Boy Wonder Radio Edit)
TTITLE1=Two Doors Down (Cyphonix Radio Mix)
TTITLE2=Peace Train (Sparky's Piano Club Mix)
TTITLE3=Peace Train (Boy Wonder Mix)
TTITLE4=Two Doors Down (Cyphonix Extended Mix)
EXTD=
EXTT0=
EXTT1=
EXTT2=
EXTT3=
EXTT4=
PLAYORDER=
